HIERARCHY
ROOT Hips
{
	OFFSET 0.000000 0.000000 0.000000 
	CHANNELS 6 Xposition Yposition Zposition Yrotation Zrotation Xrotation 
	JOINT Lumbar
	{
		OFFSET 0.000000 0.000000 0.000000 
		CHANNELS 3 Zrotation Xrotation Yrotation
		JOINT Neck
		{
			OFFSET 0.000000 0.445665 0.000000 
			CHANNELS 3 Zrotation Xrotation Yrotation
			End Site
			{
				OFFSET 0.000000 0.227535 0.000000 
			}
		}
		JOINT RightShoulder
		{
			OFFSET 0.019635 0.377685 0.194865 
			CHANNELS 3 Zrotation Xrotation Yrotation
			JOINT RightElbow
			{
				OFFSET 0.000000 -0.243375 0.000000 
				CHANNELS 2 Zrotation Yrotation
				JOINT RightWrist
				{
					OFFSET 0.000000 -0.264825 0.000000 
					CHANNELS 2 Zrotation Xrotation
					End Site
					{
						OFFSET 0.006600 -0.176220 0.000990 
					}
				}
			}
		}
		JOINT LeftShoulder
		{
			OFFSET 0.019635 0.377685 -0.194865 
			CHANNELS 3 Zrotation Xrotation Yrotation
			JOINT LeftElbow
			{
				OFFSET 0.000000 -0.243375 0.000000 
				CHANNELS 2 Zrotation Yrotation
				JOINT LeftWrist
				{
					OFFSET 0.000000 -0.264825 0.000000 
					CHANNELS 2 Zrotation Xrotation
					End Site
					{
						OFFSET 0.006600 -0.176220 -0.000990 
					}
				}
			}
		}
	}
	JOINT RightHip
	{
		OFFSET 0.052140 -0.069960 0.075570 
		CHANNELS 3 Zrotation Xrotation Yrotation
		JOINT RightKnee
		{
			OFFSET 0.000000 -0.402270 0.000000 
			CHANNELS 1 Zrotation
			JOINT RightAnkle
			{
				OFFSET 0.000000 -0.404085 0.000000 
				CHANNELS 3 Zrotation Xrotation Yrotation
				End Site
				{
					OFFSET 0.204105 -0.089430 0.008415 
				}
			}
		}
	}
	JOINT LeftHip
	{
		OFFSET 0.052140 -0.069960 -0.075570 
		CHANNELS 3 Zrotation Xrotation Yrotation
		JOINT LeftKnee
		{
			OFFSET 0.000000 -0.402270 0.000000 
			CHANNELS 1 Zrotation
			JOINT LeftAnkle
			{
				OFFSET 0.000000 -0.404085 0.000000 
				CHANNELS 3 Zrotation Xrotation Yrotation
				End Site
				{
					OFFSET 0.204105 -0.089430 -0.008415 
				}
			}
		}
	}
}
MOTION
Frames: 22
Frame Time: 0.02
0.0003 0.00011 0.0001 177.62647 -46.9926 1.49067 58.13417 -0.44631 0.47671 -12.69566 0.18417 -0.13208 173.81291 -76.9272 -60.44229 13.53451 88.42246 5.45992 -3.4731 154.73327 82.5 244.25691 5.32865 -83.83937 -11.94252 15.10159 50.58544 -1.62836 -4.04238 -19.04374 -8.52482 -5.49173 -3.66607 54.68076 2.62247 7.0363 -24.37046 -8.54806 5.07877 3.45166
0.00141 3e-05 4e-05 177.65514 -46.91489 1.46751 57.93633 -0.40288 0.59312 -12.34231 0.04828 -0.13301 168.30338 -76.9222 -63.42107 12.81574 87.19632 4.82532 -3.38285 149.23105 82.22932 213.34064 5.32825 -83.41256 -10.67412 12.87402 50.57903 -1.64703 -4.28432 -19.06147 -8.50443 -5.47289 -3.65545 54.67896 2.65464 7.04138 -24.3738 -8.55308 5.07272 3.44786
0.00252 -6e-05 -1e-05 177.68388 -46.83723 1.44441 57.7388 -0.3596 0.70925 -11.98963 -0.08717 -0.13402 162.80315 -76.91685 -66.35188 12.09901 85.97456 4.19143 -3.29115 143.74338 81.95758 182.51962 5.32895 -82.98856 -9.4096 10.65517 50.57254 -1.66565 -4.52566 -19.07916 -8.4841 -5.4541 -3.64487 54.67709 2.6867 7.04623 -24.37714 -8.55812 5.06669 3.44408
0.00362 -0.00015 -6e-05 177.71248 -46.75974 1.42133 57.54152 -0.31631 0.82532 -11.6373 -0.22264 -0.13497 157.30938 -76.91186 -69.31384 11.38231 84.75231 3.55861 -3.20077 138.25783 81.68744 151.69858 5.32863 -82.56338 -8.14503 8.43478 50.56614 -1.68426 -4.76687 -19.09684 -8.46377 -5.43531 -3.63428 54.67529 2.71877 7.05126 -24.38047 -8.56314 5.06066 3.4403
0.00473 -0.00023 -0.00012 177.74097 -46.68226 1.39819 57.34404 -0.27287 0.94164 -11.28446 -0.35853 -0.13582 151.80909 -76.90719 -72.34204 10.66393 83.52544 2.9255 -3.11283 132.75835 81.41903 120.78233 5.32706 -82.13463 -6.8768 6.20491 50.55986 -1.70294 -5.00866 -19.11454 -8.44337 -5.41647 -3.62366 54.67356 2.75096 7.05661 -24.38378 -8.56813 5.05461 3.4365
0.00584 -0.00032 -0.00017 177.77022 -46.60423 1.37516 57.14641 -0.22993 1.05736 -10.93216 -0.49306 -0.13714 146.3093 -76.90032 -75.07043 9.9509 82.31446 2.28997 -3.01344 127.29569 81.1403 90.16325 5.33264 -81.72051 -5.62026 4.00928 50.55292 -1.72143 -5.24903 -19.13222 -8.4232 -5.39778 -3.61314 54.67139 2.78274 7.06042 -24.38717 -8.57326 5.04862 3.43276
0.00695 -0.00041 -0.00023 177.79789 -46.5274 1.35195 56.94931 -0.18604 1.17416 -10.57914 -0.63019 -0.13753 140.81498 -76.89832 -78.38829 9.22713 81.07298 1.66021 -2.93624 121.76597 80.88271 58.98166 5.32318 -81.27799 -4.34109 1.74752 50.54732 -1.74027 -5.49194 -19.14993 -8.40261 -5.37882 -3.60244 54.67013 2.8153 7.0673 -24.39041 -8.57811 5.04252 3.42891
0.00806 -0.00049 -0.00028 177.82707 -46.44945 1.32891 56.7517 -0.14302 1.28997 -10.22683 -0.76492 -0.13876 135.31489 -76.89103 -81.18225 8.51464 79.8594 1.02476 -2.84034 116.29624 80.60553 28.31571 5.3288 -80.86061 -3.08372 -0.45389 50.54047 -1.7588 -5.73261 -19.16761 -8.38239 -5.36011 -3.5919 54.66802 2.84715 7.07137 -24.39379 -8.58321 5.03651 3.42515
0.00917 -0.00058 -0.00033 177.8579 -46.37015 1.30604 56.55342 -0.10103 1.4046 -9.87499 -0.8968 -0.14111 129.80694 -76.88037 -83.25186 7.81016 78.68042 0.3833 -2.71424 110.90448 80.30431 -1.72062 5.34823 -80.47819 -1.84878 -2.5796 50.53214 -1.77688 -5.97026 -19.18524 -8.36265 -5.3417 -3.58155 54.6649 2.87812 7.07189 -24.39735 -8.58866 5.03066 3.42153
0.01027 -0.00067 -0.00039 177.87865 -46.29867 1.28207 56.35886 -0.05302 1.52611 -9.51922 -1.0453 -0.13728 124.34145 -76.89839 -89.23605 7.0422 77.30382 -0.22077 -2.73978 105.07784 80.14108 -35.38252 5.27431 -79.90737 -0.47202 -5.13511 50.53245 -1.79737 -6.22445 -19.20312 -8.34023 -5.32155 -3.57012 54.66768 2.9141 7.09249 -24.39988 -8.59225 5.02402 3.4172
0.01139 -0.00075 -0.00044 177.92104 -46.21066 1.2605 56.15657 -0.01779 1.63305 -9.17262 -1.15859 -0.14632 118.78942 -76.85002 -87.127 6.41935 76.34325 -0.90534 -2.45972 100.16062 79.68716 -61.39092 5.40611 -79.72577 0.59728 -6.7875 50.51448 -1.81289 -6.44422 -19.22052 -8.3234 -5.30505 -3.56094 54.65797 2.93956 7.07096 -24.40458 -8.59964 5.01896 3.41431
0.01255 -0.0008 -0.00046 178.02019 -46.07726 1.24492 55.93181 -0.01719 1.70021 -8.84366 -1.17548 -0.1924 112.96533 -76.66368 -61.21275 6.10882 76.54424 -1.80019 -1.21246 97.82279 78.42147 -66.22093 6.03834 -80.69154 0.8827 -5.90847 50.44649 -1.8135 -6.56457 -19.23606 -8.32252 -5.2987 -3.55821 54.61401 2.93568 6.93109 -24.41523 -8.61856 5.01889 3.41593
0.01373 -0.00085 -0.00047 178.14144 -45.92744 1.23179 55.69955 -0.02944 1.75272 -8.52509 -1.15702 -0.25108 107.05885 -76.40096 -27.46597 5.96148 77.16017 -2.77777 0.31933 96.37934 76.86526 -63.39073 6.89032 -82.03377 0.84847 -4.13356 50.36024 -1.8093 -6.65103 -19.25121 -8.32708 -5.29592 -3.55765 54.55759 2.92149 6.74957 -24.42801 -8.64107 5.02018 3.41885
0.01491 -0.00089 -0.00048 178.25443 -45.78496 1.21807 55.47147 -0.03615 1.81178 -8.20695 -1.15453 -0.30292 101.21475 -76.14627 1.65249 5.79353 77.57204 -3.72452 1.63505 94.47587 75.45276 -64.19158 7.68196 -83.15158 0.92129 -2.80186 50.28209 -1.8082 -6.75656 -19.26691 -8.32881 -5.29148 -3.55596 54.5067 2.91211 6.5887 -24.43986 -8.66131 5.02051 3.42089
0.01608 -0.00094 -0.0005 178.36042 -45.64229 1.20251 55.23992 -0.04188 1.8712 -7.86795 -1.15219 -0.35956 95.27238 -76.01035 35.29325 5.39339 78.04647 -4.64318 3.31152 92.81345 73.99538 -64.37723 8.30189 -84.49406 1.15419 -1.31135 50.20425 -1.80346 -6.84757 -19.28107 -8.33227 -5.28748 -3.55502 54.45593 2.90151 6.41987 -24.45175 -8.68445 5.02265 3.42435
0.01726 -0.00099 -0.00051 178.48565 -45.49694 1.19089 55.01407 -0.05238 1.92646 -7.57379 -1.14137 -0.40911 89.50616 -75.60108 61.37825 5.52359 78.49354 -5.63959 4.3117 90.84451 72.55631 -63.98745 9.33816 -85.45938 0.97869 0.0548 50.12205 -1.80488 -6.95949 -19.29828 -8.33317 -5.28306 -3.55284 54.4025 2.89187 6.25855 -24.46383 -8.70214 5.02091 3.42493
0.01846 -0.00103 -0.00052 178.66345 -45.34159 1.19365 54.80361 -0.07583 1.9732 -7.41033 -1.11418 -0.43652 84.32769 -74.52095 64.59147 7.00812 78.7202 -6.82929 3.30774 87.95009 71.2916 -64.26829 11.41031 -85.27565 -0.24864 0.90773 50.02749 -1.82688 -7.14892 -19.32447 -8.32769 -5.27972 -3.5484 54.3403 2.87968 6.12141 -24.47787 -8.70613 5.01176 3.41935
0.01965 -0.00108 -0.00054 178.85903 -45.18543 1.19963 54.59944 -0.10321 2.01633 -7.29004 -1.07996 -0.45627 79.31668 -73.15497 59.94858 9.03273 78.91115 -8.09186 1.62595 84.69194 70.04407 -64.16941 13.90278 -84.70193 -1.87268 1.59647 49.93025 -1.85484 -7.35863 -19.35368 -8.31912 -5.27534 -3.54235 54.27685 2.87007 5.99447 -24.49174 -8.70417 4.99805 3.4105
0.02085 -0.00112 -0.00055 179.04316 -45.03386 1.20127 54.39397 -0.12676 2.06156 -7.14365 -1.05008 -0.47914 74.17267 -71.87867 58.95481 10.85741 79.14909 -9.32524 0.29815 81.50576 68.75608 -63.98874 16.24489 -84.31704 -3.31695 2.32592 49.83721 -1.87841 -7.55127 -19.38113 -8.31058 -5.26933 -3.53586 54.21672 2.86458 5.86739 -24.50432 -8.70339 4.9839 3.40169
0.02206 -0.00117 -0.00056 179.24191 -44.86352 1.21468 54.18213 -0.15897 2.10447 -7.0244 -1.01429 -0.50391 69.25583 -70.77459 57.88609 12.49999 79.27918 -10.55605 -1.21437 78.73654 67.60201 -64.59638 18.43212 -83.89718 -4.78144 3.22406 49.73029 -1.9087 -7.77504 -19.41005 -8.30783 -5.27204 -3.53421 54.14391 2.83712 5.72017 -24.52246 -8.70887 4.98004 3.3988
0.02324 -0.0012 -0.00058 179.41462 -44.73277 1.20491 53.98455 -0.17441 2.15136 -6.85949 -0.9894 -0.52283 63.91941 -69.23856 55.02535 14.6425 79.61054 -11.7945 -2.50598 75.01126 66.16911 -63.59429 21.02747 -83.45157 -6.27977 3.72741 49.65269 -1.92673 -7.94028 -19.43683 -8.29247 -5.25662 -3.52229 54.09818 2.85525 5.61753 -24.5293 -8.70021 4.95411 3.38305
0.02434 -0.00117 -0.00067 179.50654 -44.70754 1.12511 53.82971 -0.13836 2.212 -6.55146 -0.99829 -0.52669 57.27715 -66.63587 48.92862 18.07582 80.58717 -13.15688 -3.03051 68.64167 64.03158 -58.0847 24.74185 -83.0382 -7.89586 3.11277 49.64989 -1.90721 -7.92945 -19.45526 -8.2408 -5.18848 -3.48059 54.1206 3.00679 5.63895 -24.50183 -8.65103 4.8643 3.33019
